<?xml version="1.0" standalone="no"?>
<!DOCTYPE svg PUBLIC "-//W3C//DTD SVG 20010904//EN"
 "http://www.w3.org/TR/2001/REC-SVG-20010904/DTD/svg10.dtd">
<svg version="1.0" xmlns="http://www.w3.org/2000/svg"
 width="800.000000pt" height="800.000000pt" viewBox="0 0 800.000000 800.000000"
 preserveAspectRatio="xMidYMid meet">
<metadata>
Created by potrace 1.16, written by Peter Selinger 2001-2019
</metadata>
<g transform="translate(0.000000,800.000000) scale(0.100000,-0.100000)"
fill="#000000" stroke="none">
<path d="M594 5338 c3 -13 6 -665 6 -1450 l0 -1428 420 0 420 0 0 620 0 620
200 0 200 0 0 -210 0 -210 210 0 210 0 0 -215 0 -215 205 0 205 0 0 -195 0
-195 415 0 415 0 0 1450 0 1450 -422 0 -423 0 3 -620 3 -620 -201 0 -200 0 0
215 0 215 -210 0 -210 0 0 205 0 205 -210 0 -210 0 0 200 0 200 -416 0 -416 0
6 -22z"/>
<path d="M4444 5338 c3 -13 6 -665 6 -1450 l0 -1428 425 0 426 0 -3 620 -3
620 198 0 197 0 0 -205 0 -205 179 0 c98 0 193 -3 210 -6 l31 -6 0 211 0 211
210 0 210 0 0 -620 0 -620 410 0 410 0 0 1450 0 1450 -422 0 -423 0 3 -205 3
-205 -213 0 -213 0 3 -205 3 -205 -200 0 -201 0 0 210 0 210 -210 0 -210 0 0
200 0 200 -416 0 -416 0 6 -22z"/>
</g>
</svg>
